<svg viewBox="0 0 512 512" xmlns="http://www.w3.org/2000/svg" fill-rule="evenodd" clip-rule="evenodd" stroke-linejoin="round" stroke-miterlimit="2"><path d="M253.397 165.568H74.005c-17.088 0-31.189-13.995-31.338-31.083V31.083C42.667 13.739 56.96 0 74.283 0H221.76c17.643 0 31.637 14.037 31.637 31.083v134.485zM445.483 345.92H253.589V165.333h191.894c18.56 0 33.877 15.296 33.877 33.835v112.939c0 18.88-15.296 33.835-33.877 33.835v-.022zM221.76 512H74.283c-17.323 0-31.616-14.016-31.616-31.018V377.45c0-17.003 14.293-31.019 31.616-31.019h179.114v134.55c0 17.002-14.293 31.018-31.637 31.018z" fill="#fd5402" fill-rule="nonzero"/></svg>